HIERARCHY
ROOT Hips
{
	OFFSET 0.000000 0.000000 0.000000 
	CHANNELS 6 Xposition Yposition Zposition Yrotation Zrotation Xrotation 
	JOINT Lumbar
	{
		OFFSET 0.000000 0.000000 0.000000 
		CHANNELS 3 Zrotation Xrotation Yrotation
		JOINT Neck
		{
			OFFSET 0.000000 0.445665 0.000000 
			CHANNELS 3 Zrotation Xrotation Yrotation
			End Site
			{
				OFFSET 0.000000 0.227535 0.000000 
			}
		}
		JOINT RightShoulder
		{
			OFFSET 0.019635 0.377685 0.194865 
			CHANNELS 3 Zrotation Xrotation Yrotation
			JOINT RightElbow
			{
				OFFSET 0.000000 -0.243375 0.000000 
				CHANNELS 2 Zrotation Yrotation
				JOINT RightWrist
				{
					OFFSET 0.000000 -0.264825 0.000000 
					CHANNELS 2 Zrotation Xrotation
					End Site
					{
						OFFSET 0.006600 -0.176220 0.000990 
					}
				}
			}
		}
		JOINT LeftShoulder
		{
			OFFSET 0.019635 0.377685 -0.194865 
			CHANNELS 3 Zrotation Xrotation Yrotation
			JOINT LeftElbow
			{
				OFFSET 0.000000 -0.243375 0.000000 
				CHANNELS 2 Zrotation Yrotation
				JOINT LeftWrist
				{
					OFFSET 0.000000 -0.264825 0.000000 
					CHANNELS 2 Zrotation Xrotation
					End Site
					{
						OFFSET 0.006600 -0.176220 -0.000990 
					}
				}
			}
		}
	}
	JOINT RightHip
	{
		OFFSET 0.052140 -0.069960 0.075570 
		CHANNELS 3 Zrotation Xrotation Yrotation
		JOINT RightKnee
		{
			OFFSET 0.000000 -0.402270 0.000000 
			CHANNELS 1 Zrotation
			JOINT RightAnkle
			{
				OFFSET 0.000000 -0.404085 0.000000 
				CHANNELS 3 Zrotation Xrotation Yrotation
				End Site
				{
					OFFSET 0.204105 -0.089430 0.008415 
				}
			}
		}
	}
	JOINT LeftHip
	{
		OFFSET 0.052140 -0.069960 -0.075570 
		CHANNELS 3 Zrotation Xrotation Yrotation
		JOINT LeftKnee
		{
			OFFSET 0.000000 -0.402270 0.000000 
			CHANNELS 1 Zrotation
			JOINT LeftAnkle
			{
				OFFSET 0.000000 -0.404085 0.000000 
				CHANNELS 3 Zrotation Xrotation Yrotation
				End Site
				{
					OFFSET 0.204105 -0.089430 -0.008415 
				}
			}
		}
	}
}
MOTION
Frames: 16
Frame Time: 0.02
-0.00097 -0.00352 0.00013 28.25462 -18.97745 -3.37262 41.13622 -0.12037 -9.38611 -11.72625 3.05871 -1.0564 -18.76235 -5.85633 -9.09156 23.5986 93.42036 6.80617 1.3896 -23.80393 11.05694 -11.36709 31.83406 -82.22784 8.14228 1.41539 31.60583 -3.7461 -9.5114 -20.57661 -6.29594 -3.1951 -3.79782 36.23321 2.94193 2.6091 -24.34687 -6.83185 2.08399 3.25983
6e-05 -0.00309 -0.00061 28.22682 -18.8973 -3.36702 41.27381 -0.14456 -9.20505 -11.73189 3.04881 -1.05797 -18.86991 -5.81345 -8.91536 23.76068 93.4255 6.85231 1.42485 -23.7448 10.68927 -10.48691 31.73913 -86.80437 9.7121 0.72266 31.45283 -3.72728 -9.48825 -20.53676 -6.30696 -3.20247 -3.79914 36.07279 3.00504 2.84265 -24.32819 -6.83147 2.06033 3.24813
0.00109 -0.00268 -0.00135 28.19903 -18.81734 -3.36145 41.41107 -0.16865 -9.02449 -11.73743 3.03894 -1.05953 -18.97693 -5.77057 -8.74027 23.92227 93.43698 6.89999 1.46101 -23.6859 10.32284 -9.60966 31.6446 -91.36686 11.27705 0.03205 31.30021 -3.70851 -9.4653 -20.49703 -6.31795 -3.2098 -3.80045 35.91276 3.068 3.07559 -24.30957 -6.83109 2.03674 3.23646
0.00212 -0.00226 -0.0021 28.1713 -18.73743 -3.35588 41.54826 -0.19275 -8.84397 -11.74304 3.02907 -1.06108 -19.08411 -5.72778 -8.56478 24.08384 93.4436 6.94639 1.49639 -23.62697 9.95633 -8.73224 31.54998 -95.92925 12.84201 -0.65853 31.14766 -3.68975 -9.44224 -20.4573 -6.32894 -3.21715 -3.80176 35.75281 3.13092 3.30844 -24.29095 -6.83071 2.01315 3.22479
0.00315 -0.00184 -0.00284 28.14358 -18.65732 -3.35027 41.68572 -0.21696 -8.66301 -11.74878 3.01915 -1.06264 -19.19193 -5.6851 -8.38777 24.24593 93.44022 6.99029 1.53027 -23.56779 9.58855 -7.8518 31.45491 -100.50582 14.41188 -1.35126 30.99476 -3.67094 -9.41892 -20.41746 -6.33997 -3.22453 -3.80309 35.59251 3.19399 3.54184 -24.27226 -6.83035 1.98949 3.21308
0.00417 -0.00142 -0.00358 28.11565 -18.5777 -3.34477 41.82253 -0.24082 -8.48332 -11.75392 3.0094 -1.0642 -19.29728 -5.64182 -8.21664 24.40646 93.48216 7.04571 1.57106 -23.50948 9.22498 -6.98129 31.36153 -105.03851 15.96643 -2.03741 30.84274 -3.65226 -9.39677 -20.37796 -6.35085 -3.23178 -3.80436 35.43305 3.2567 3.77381 -24.2538 -6.82993 1.96607 3.2015
0.0052 -0.00099 -0.00433 28.08817 -18.49719 -3.33907 41.96053 -0.26534 -8.30122 -11.76024 2.99933 -1.06576 -19.40741 -5.59967 -8.03436 24.56989 93.43636 7.07882 1.59849 -23.44949 8.85335 -6.09186 31.26485 -109.65385 17.5499 -2.7359 30.68912 -3.63334 -9.37228 -20.33782 -6.36202 -3.23928 -3.80574 35.27207 3.32007 4.00841 -24.23491 -6.82961 1.94219 3.18969
0.00623 -0.00058 -0.00507 28.0603 -18.4175 -3.33355 42.09742 -0.28927 -8.1214 -11.76551 2.98954 -1.06732 -19.51327 -5.55669 -7.86146 24.73073 93.46509 7.13079 1.6372 -23.39106 8.48913 -5.2197 31.17121 -114.19416 19.10707 -3.42325 30.53698 -3.61465 -9.34996 -20.29827 -6.37293 -3.24655 -3.80702 35.1125 3.38283 4.24056 -24.2164 -6.8292 1.91873 3.17808
0.00725 -0.00017 -0.00581 28.03182 -18.33877 -3.32826 42.23308 -0.31239 -7.94405 -11.76932 2.98013 -1.06886 -19.61337 -5.51184 -7.70364 24.88817 93.61139 7.21293 1.69402 -23.33448 8.13394 -4.36903 31.08127 -118.63995 20.63128 -4.09635 30.38657 -3.59621 -9.33027 -20.25944 -6.3835 -3.25352 -3.80817 34.95454 3.44489 4.46995 -24.19838 -6.82869 1.89577 3.16672
0.00832 0.00029 -0.0066 28.00646 -18.25439 -3.32168 42.37618 -0.33993 -7.75157 -11.78103 2.96867 -1.07048 -19.74497 -5.47514 -7.46993 25.06445 93.16092 7.14291 1.65963 -23.26706 7.72669 -3.39582 30.97004 -123.62127 22.34272 -4.84953 30.22596 -3.57623 -9.29539 -20.21642 -6.39598 -3.26219 -3.81005 34.78699 3.51108 4.71593 -24.17761 -6.82878 1.86992 3.15394
0.00927 0.00064 -0.00726 27.97479 -18.18202 -3.31781 42.50332 -0.35828 -7.5916 -11.77636 2.96143 -1.07193 -19.81117 -5.42293 -7.38935 25.20143 93.91792 7.38007 1.80928 -23.22263 7.42937 -2.68048 30.90373 -127.47772 23.66056 -5.43494 30.08704 -3.55955 -9.29258 -20.18229 -6.40443 -3.26727 -3.8104 34.6399 3.56849 4.9264 -24.16262 -6.82762 1.85016 3.14415
0.0099 0.00068 -0.00756 27.92324 -18.14215 -3.32159 42.58838 -0.35006 -7.5167 -11.72407 2.9668 -1.07291 -19.68775 -5.31352 -7.79201 25.22618 98.4563 8.58523 2.53972 -23.24116 7.43616 -2.68609 30.96228 -128.16701 23.87323 -5.54392 30.00674 -3.55159 -9.37873 -20.17244 -6.40175 -3.2625 -3.80652 34.54756 3.60234 5.0431 -24.16395 -6.82283 1.84726 3.14262
0.01041 0.00062 -0.00773 27.86584 -18.11444 -3.32806 42.65707 -0.33286 -7.47514 -11.65581 2.97621 -1.07372 -19.50069 -5.19098 -8.33786 25.21238 104.12695 10.07747 3.442 -23.28293 7.5531 -2.94895 31.06599 -127.73475 23.69313 -5.48613 29.94839 -3.54702 -9.49704 -20.17154 -6.39504 -3.25411 -3.8011 34.47605 3.62732 5.12361 -24.17103 -6.81684 1.85043 3.14407
0.01097 0.0006 -0.00795 27.81276 -18.08141 -3.3332 42.73217 -0.32067 -7.42113 -11.59665 2.98308 -1.07459 -19.3492 -5.08434 -8.77556 25.21902 108.96563 11.35438 4.21481 -23.31398 7.61779 -3.08435 31.14757 -127.87716 23.71198 -5.51675 29.88054 -3.54111 -9.59988 -20.1666 -6.39023 -3.24737 -3.79641 34.3959 3.65596 5.21813 -24.17517 -6.81152 1.85076 3.14413
0.01155 0.00057 -0.00819 27.7526 -18.04743 -3.33881 42.81166 -0.30457 -7.35609 -11.52976 2.99293 -1.07551 -19.16893 -4.93682 -9.39079 25.21296 115.11988 12.98276 5.20044 -23.34516 7.69109 -3.26153 31.23466 -127.77166 23.65276 -5.49897 29.81065 -3.53431 -9.70592 -20.16154 -6.38515 -3.24066 -3.79159 34.31221 3.68599 5.32233 -24.1806 -6.80564 1.85151 3.14438
0.01206 0.00055 -0.00836 27.70587 -18.01841 -3.34406 42.87801 -0.29444 -7.32155 -11.4751 2.9975 -1.07629 -19.03427 -4.86999 -9.67597 25.22457 118.83582 13.95637 5.78906 -23.38228 7.77364 -3.41675 31.32269 -127.88077 23.65168 -5.53592 29.75032 -3.53023 -9.81352 -20.15889 -6.37963 -3.23295 -3.78666 34.24096 3.71122 5.39847 -24.1848 -6.80067 1.85275 3.1449
